<svg id="svg" version="1.1" width="400" height="400" viewBox="0 0 400 400" xmlns="http://www.w3.org/2000/svg" xmlns:xlink="http://www.w3.org/1999/xlink"><g id="svgg"><path id="path0" d="M200.000 76.263 C 199.230 76.337,196.530 76.590,194.000 76.826 C 152.955 80.645,109.431 99.928,72.800 130.521 C 67.094 135.287,57.456 144.196,55.242 146.751 L 53.287 149.009 62.227 163.204 C 72.066 178.826,71.841 178.581,74.681 176.827 C 77.416 175.137,78.279 169.593,76.700 163.860 L 76.055 161.519 77.727 158.722 C 83.092 149.751,99.551 132.438,106.700 128.246 C 107.099 128.012,107.200 147.253,107.200 223.903 L 107.200 319.854 104.900 320.561 C 96.152 323.253,92.600 327.210,95.316 331.241 L 96.232 332.600 122.600 332.600 L 148.968 332.600 149.884 331.241 C 152.528 327.318,148.891 323.271,140.300 320.576 L 138.000 319.854 138.000 297.202 L 138.000 274.549 144.300 276.645 C 207.741 297.750,267.078 289.984,305.600 255.535 C 354.710 211.617,346.118 132.525,288.285 96.152 C 264.720 81.332,229.578 73.415,200.000 76.263 M221.376 92.605 C 259.186 97.028,287.571 121.871,296.552 158.400 C 309.268 210.121,281.629 257.016,231.849 268.181 C 206.859 273.785,166.949 269.570,142.146 258.705 L 138.200 256.977 138.099 184.783 L 137.998 112.589 141.299 110.522 C 162.874 97.007,195.880 89.622,221.376 92.605 " stroke="none" fill="#fbfbfc" fill-rule="evenodd"></path><path id="path1" d="M70.526 0.622 C 34.409 5.890,5.647 34.742,0.626 70.741 C -0.326 77.566,-0.326 322.434,0.626 329.259 C 5.661 365.358,34.642 394.339,70.741 399.374 C 77.566 400.326,322.434 400.326,329.259 399.374 C 365.358 394.339,394.339 365.358,399.374 329.259 C 400.326 322.434,400.326 77.566,399.374 70.741 C 394.339 34.642,365.358 5.661,329.259 0.626 C 322.998 -0.247,76.512 -0.251,70.526 0.622 M224.600 76.017 C 294.038 81.150,342.485 130.434,337.628 191.000 C 331.267 270.313,239.583 310.346,142.297 276.290 L 138.393 274.924 138.497 297.303 L 138.600 319.683 141.744 320.829 C 149.059 323.496,152.086 326.704,150.614 330.229 C 149.258 333.473,151.836 333.200,122.558 333.200 L 96.441 333.200 95.384 331.815 C 92.141 327.563,94.888 323.895,103.667 320.754 L 107.200 319.491 107.200 223.945 C 107.200 171.395,107.065 128.400,106.900 128.401 C 106.735 128.401,104.080 130.532,101.000 133.136 C 91.289 141.347,82.581 151.043,78.015 158.728 L 76.357 161.519 77.026 164.059 C 79.009 171.596,77.033 177.622,72.533 177.758 L 71.153 177.800 62.186 163.600 C 57.254 155.790,53.214 149.201,53.209 148.958 C 53.194 148.247,66.132 135.785,71.800 131.050 C 118.675 91.893,173.285 72.224,224.600 76.017 M201.779 92.408 C 180.275 93.861,155.621 101.385,141.200 110.896 L 138.600 112.611 138.499 184.646 L 138.398 256.681 141.099 257.920 C 165.618 269.174,207.438 273.656,232.600 267.728 C 280.428 256.459,307.503 212.272,297.215 162.271 C 287.929 117.145,249.712 89.168,201.779 92.408 " stroke="none" fill="#0494fc" fill-rule="evenodd"></path><path id="path2" d="M93.775 139.300 L 92.600 140.600 93.900 139.425 C 94.615 138.779,95.200 138.194,95.200 138.125 C 95.200 137.816,94.870 138.088,93.775 139.300 M89.775 143.300 L 88.600 144.600 89.900 143.425 C 91.112 142.330,91.384 142.000,91.075 142.000 C 91.006 142.000,90.421 142.585,89.775 143.300 " stroke="none" fill="#57b9fc" fill-rule="evenodd"></path><path id="path3" d="M209.100 75.898 C 210.915 75.972,213.885 75.972,215.700 75.898 C 217.515 75.823,216.030 75.763,212.400 75.763 C 208.770 75.763,207.285 75.823,209.100 75.898 M199.300 76.276 C 199.685 76.376,200.315 76.376,200.700 76.276 C 201.085 76.175,200.770 76.093,200.000 76.093 C 199.230 76.093,198.915 76.175,199.300 76.276 M223.700 76.276 C 224.085 76.376,224.715 76.376,225.100 76.276 C 225.485 76.175,225.170 76.093,224.400 76.093 C 223.630 76.093,223.315 76.175,223.700 76.276 M201.100 92.282 C 201.595 92.378,202.405 92.378,202.900 92.282 C 203.395 92.187,202.990 92.109,202.000 92.109 C 201.010 92.109,200.605 92.187,201.100 92.282 M215.505 92.283 C 216.002 92.379,216.722 92.375,217.105 92.275 C 217.487 92.175,217.080 92.096,216.200 92.101 C 215.320 92.105,215.007 92.187,215.505 92.283 M337.293 176.400 C 337.293 177.170,337.375 177.485,337.476 177.100 C 337.576 176.715,337.576 176.085,337.476 175.700 C 337.375 175.315,337.293 175.630,337.293 176.400 M299.309 177.600 C 299.309 178.590,299.387 178.995,299.482 178.500 C 299.578 178.005,299.578 177.195,299.482 176.700 C 299.387 176.205,299.309 176.610,299.309 177.600 M299.309 189.600 C 299.309 190.590,299.387 190.995,299.482 190.500 C 299.578 190.005,299.578 189.195,299.482 188.700 C 299.387 188.205,299.309 188.610,299.309 189.600 M337.293 191.600 C 337.293 192.370,337.375 192.685,337.476 192.300 C 337.576 191.915,337.576 191.285,337.476 190.900 C 337.375 190.515,337.293 190.830,337.293 191.600 M194.305 270.283 C 194.802 270.379,195.522 270.375,195.905 270.275 C 196.287 270.175,195.880 270.096,195.000 270.101 C 194.120 270.105,193.807 270.187,194.305 270.283 M204.080 270.698 C 205.994 270.771,209.234 270.771,211.280 270.698 C 213.326 270.626,211.760 270.566,207.800 270.565 C 203.840 270.565,202.166 270.624,204.080 270.698 M200.705 288.283 C 201.202 288.379,201.922 288.375,202.305 288.275 C 202.687 288.175,202.280 288.096,201.400 288.101 C 200.520 288.105,200.207 288.187,200.705 288.283 M222.705 288.283 C 223.202 288.379,223.922 288.375,224.305 288.275 C 224.687 288.175,224.280 288.096,223.400 288.101 C 222.520 288.105,222.207 288.187,222.705 288.283 M209.900 288.696 C 211.275 288.774,213.525 288.774,214.900 288.696 C 216.275 288.618,215.150 288.554,212.400 288.554 C 209.650 288.554,208.525 288.618,209.900 288.696 " stroke="none" fill="#97d4fc" fill-rule="evenodd"></path><path id="path4" d="M203.700 75.876 C 204.085 75.976,204.715 75.976,205.100 75.876 C 205.485 75.775,205.170 75.693,204.400 75.693 C 203.630 75.693,203.315 75.775,203.700 75.876 M204.500 92.276 C 204.885 92.376,205.515 92.376,205.900 92.276 C 206.285 92.175,205.970 92.093,205.200 92.093 C 204.430 92.093,204.115 92.175,204.500 92.276 M212.305 92.283 C 212.802 92.379,213.522 92.375,213.905 92.275 C 214.287 92.175,213.880 92.096,213.000 92.101 C 212.120 92.105,211.807 92.187,212.305 92.283 M307.600 111.400 C 309.017 112.830,310.267 114.000,310.377 114.000 C 310.487 114.000,309.417 112.830,308.000 111.400 C 306.583 109.970,305.333 108.800,305.223 108.800 C 305.113 108.800,306.183 109.970,307.600 111.400 M138.185 112.900 C 138.080 113.175,138.041 145.710,138.097 185.200 L 138.200 257.000 138.400 184.700 C 138.510 144.935,138.549 112.400,138.487 112.400 C 138.426 112.400,138.289 112.625,138.185 112.900 M272.400 116.125 C 272.400 116.194,272.985 116.779,273.700 117.425 L 275.000 118.600 273.825 117.300 C 272.730 116.088,272.400 115.816,272.400 116.125 M77.701 170.200 C 77.705 171.080,77.787 171.393,77.883 170.895 C 77.979 170.398,77.975 169.678,77.875 169.295 C 77.775 168.913,77.696 169.320,77.701 170.200 M299.324 181.400 C 299.326 182.720,299.401 183.212,299.490 182.493 C 299.579 181.774,299.577 180.694,299.486 180.093 C 299.395 179.492,299.322 180.080,299.324 181.400 M337.750 184.200 C 337.751 186.620,337.816 187.558,337.896 186.285 C 337.976 185.012,337.975 183.032,337.894 181.885 C 337.814 180.738,337.749 181.780,337.750 184.200 M299.314 185.800 C 299.317 186.900,299.395 187.303,299.487 186.695 C 299.579 186.086,299.577 185.186,299.482 184.695 C 299.387 184.203,299.311 184.700,299.314 185.800 M274.800 244.600 C 273.828 245.590,273.123 246.400,273.233 246.400 C 273.343 246.400,274.228 245.590,275.200 244.600 C 276.172 243.610,276.877 242.800,276.767 242.800 C 276.657 242.800,275.772 243.610,274.800 244.600 M309.200 252.200 C 308.228 253.190,307.523 254.000,307.633 254.000 C 307.743 254.000,308.628 253.190,309.600 252.200 C 310.572 251.210,311.277 250.400,311.167 250.400 C 311.057 250.400,310.172 251.210,309.200 252.200 M138.091 297.076 C 138.041 309.438,138.135 319.636,138.300 319.738 C 138.572 319.907,138.568 303.208,138.290 282.600 C 138.231 278.200,138.141 284.714,138.091 297.076 M205.505 288.683 C 206.002 288.779,206.722 288.775,207.105 288.675 C 207.487 288.575,207.080 288.496,206.200 288.501 C 205.320 288.505,205.007 288.587,205.505 288.683 M218.100 288.676 C 218.485 288.776,219.115 288.776,219.500 288.676 C 219.885 288.575,219.570 288.493,218.800 288.493 C 218.030 288.493,217.715 288.575,218.100 288.676 M109.529 333.100 C 116.860 333.161,128.740 333.161,135.929 333.100 C 143.118 333.039,137.120 332.989,122.600 332.989 C 108.080 332.989,102.198 333.039,109.529 333.100 " stroke="none" fill="#34acfc" fill-rule="evenodd"></path></g></svg>